# xmcd CD database file
#
# Track frame offsets:
#	150
#	13647
#	27892
#	41542
#	56635
#	73655
#	86875
#	102560
#	113047
#	131752
#	145872
#	163777
#	179497
#
# Disc length: 2639 seconds
#
# Revision: 5
# Processed by: cddbd v1.4PL0 Copyright (c) Steve Scherf et al.
# Submitted via: CDex 1.50beta10
#
DISCID=b90a4d0d
DTITLE=Keb' Mo' - Keb' Mo'
DYEAR=1994
DGENRE=Blues
TTITLE0=Every Morning
TTITLE1=Tell Everybody I Know
TTITLE2=Love Blues
TTITLE3=Victims Of Comfort
TTITLE4=Angelina
TTITLE5=Anybody Seen My Girl
TTITLE6=She Just Wants To Dance
TTITLE7=Am I Wrong
TTITLE8=Come On In My Kitchen
TTITLE9=Dirty Low Down And Bad
TTITLE10=Don't Try To Explain
TTITLE11=Kindhearted Woman Blues
TTITLE12=City Boy
EXTD=(c) 1994 OKeh/epic (Sony) EK 57863\n\nRecording: Red Zone Studios, Burbank CA\nKeb' Mo': vocals, guitars, harmonica, banjo\nTommy Eyre: keyboards\nJames "Hutch" Hutchinson: bass\nLaval Belle: drums\nQuentin Dennard: drums (track 5]\nTony Draunagel: 
EXTD=percussion (track 9]\n\nEntry updated: Mike Lempriere  mikel@speakeasy.org  15-Apr-1997\n YEAR: 1994
EXTT0=
EXTT1=
EXTT2=
EXTT3=
EXTT4=
EXTT5=
EXTT6=
EXTT7=
EXTT8=
EXTT9=
EXTT10=
EXTT11=
EXTT12=
PLAYORDER=
